<svg width="65.000000" height="65.000000" viewBox="0 0 65 65" fill="none" xmlns="http://www.w3.org/2000/svg" xmlns:xlink="http://www.w3.org/1999/xlink">
	<desc>
			Created with Pixso.
	</desc>
	<defs>
		<clipPath id="clip104_3288">
			<rect id="fi_3655511" rx="0.000000" width="64.000000" height="64.000000" transform="translate(0.500000 0.500000)" fill="white" fill-opacity="0"/>
		</clipPath>
	</defs>
	<rect id="fi_3655511" rx="0.000000" width="64.000000" height="64.000000" transform="translate(0.500000 0.500000)" fill="#FFFFFF" fill-opacity="0"/>
	<g clip-path="url(#clip104_3288)">
		<path id="Vector" d="M54.4 45.45C52.8 56.68 43.97 64.87 32.41 64.99C30.15 65.02 28.52 64.49 26.41 63.82C19.24 61.56 14.22 56.16 12.25 48.91C12 47.97 11.77 46.99 11.57 45.96C11.46 45.33 11.36 44.71 11.28 44.08C10.07 34.4 11.81 25.49 18.48 18.85C18.63 18.71 18.87 18.81 18.88 19.01C18.88 19.69 19.63 18.75 19.83 19.81C20 20.68 20.27 21.64 20.7 22.61C20.88 23.01 21.07 23.37 21.26 23.71C21.64 24.36 22.03 24.87 22.37 25.27C22.56 25.49 22.9 25.4 22.97 25.13C23.16 24.32 24.03 23.65 24.36 22.69C24.89 21.17 25.63 19.53 26.66 17.96C28.49 15.15 29.97 14.66 31.57 12.69C33.22 10.68 34.9 8.61 35.63 2.11C35.66 1.82 36.01 1.7 36.22 1.91C37 2.71 37.28 1.74 37.98 2.61C38.13 2.8 38.28 2.99 38.43 3.18C38.45 3.2 38.46 3.22 38.47 3.24C43.47 9.73 46.37 17.98 46.65 25.9C46.69 27.13 46.8 28.86 46.86 29.79C46.88 30.1 47.22 30.26 47.47 30.09C49.25 29.16 51.37 27.51 51.74 25.58C51.79 25.36 52.08 25.32 52.18 25.52C52.64 26.55 53.2 25.98 53.55 27.11C55.04 32.05 55.38 38 54.4 45.45Z" fill="#F9AF38" fill-opacity="1.000000" fill-rule="nonzero"/>
		<path id="Vector" d="M47.83 42.63C47.83 51.16 40.92 58.07 32.4 58.07C23.88 58.07 16.97 51.16 16.97 42.63C16.97 34.11 23.88 27.2 32.4 27.2C40.92 27.2 47.83 34.11 47.83 42.63Z" fill="#F5FCFF" fill-opacity="1.000000" fill-rule="evenodd"/>
		<path id="Vector" d="M44.97 51.57C42.66 54.82 39.11 57.18 34.87 57.87C26.47 59.23 18.53 53.5 17.17 45.11C16.19 39.1 18.84 33.34 23.49 30.04C21.22 33.23 20.15 37.28 20.83 41.44C22.19 49.84 30.13 55.57 38.53 54.2C40.93 53.81 43.12 52.89 44.97 51.57Z" fill="#E0F5FC" fill-opacity="1.000000" fill-rule="nonzero"/>
		<path id="Vector" d="M33.83 64.94C33.36 64.97 32.89 64.99 32.41 64.99C30.15 65.02 27.93 64.66 25.81 63.99C18.64 61.73 13.21 55.86 11.25 48.61C10.99 47.67 10.77 46.69 10.57 45.66C10.45 45.03 10.35 44.41 10.27 43.78C9.06 34.1 12.49 23.62 19.17 16.98C19.32 16.83 19.56 16.93 19.57 17.14C19.57 17.81 19.63 18.75 19.83 19.81C14.81 26.38 12.36 35.38 13.41 43.78C13.49 44.41 13.59 45.03 13.71 45.66C13.9 46.69 14.13 47.67 14.39 48.61C16.35 55.86 21.78 61.73 28.95 63.99C30.52 64.49 32.16 64.81 33.83 64.94Z" fill="#F48931" fill-opacity="1.000000" fill-rule="nonzero"/>
		<path id="Vector" d="M25.34 7.05C24.8 9.91 23.07 10.54 22.32 11.13C22.2 11.23 22.01 11.2 21.93 11.06C21.45 10.23 20.13 8.62 20.66 5.76C20.78 5.17 20.73 4.54 20.96 4.02C21.87 2.04 23.46 0.65 24.06 0.17C24.18 0.07 24.37 0.11 24.45 0.25C24.88 0.99 26.06 3.27 25.92 5.78C25.91 6.08 25.4 6.75 25.34 7.05Z" fill="#DF646E" fill-opacity="1.000000" fill-rule="nonzero"/>
		<path id="Vector" d="M25.82 6.69C25.28 9.55 22.94 11.6 22.19 12.2C22.06 12.3 21.88 12.26 21.8 12.13C21.32 11.3 19.89 8.54 20.43 5.68C20.56 4.98 20.8 4.33 21.1 3.74C21.18 5.98 22.19 7.92 22.59 8.59C22.67 8.73 22.85 8.77 22.97 8.67C23.54 8.22 25.01 6.94 25.93 5.1C25.95 5.62 25.92 6.15 25.82 6.69Z" fill="#C52361" fill-opacity="1.000000" fill-rule="nonzero"/>
		<path id="Vector" d="M54.4 13.25C54.44 15.65 53.05 17.25 52.47 17.87C52.37 17.98 52.2 17.99 52.09 17.88C51.5 17.28 50.06 15.99 50.02 13.58C50.02 13.13 49.74 12.46 49.84 12.05C50.26 10.23 51.48 8.79 51.95 8.28C52.06 8.17 52.23 8.17 52.33 8.28C52.81 8.76 54.06 10.16 54.55 11.94C54.66 12.37 54.39 12.78 54.4 13.25Z" fill="#DF646E" fill-opacity="1.000000" fill-rule="nonzero"/>
		<path id="Vector" d="M54.74 13.29C54.78 15.69 53.06 17.74 52.48 18.36C52.38 18.46 52.21 18.47 52.1 18.36C51.51 17.76 49.73 15.76 49.69 13.35C49.68 12.8 49.77 12.27 49.91 11.77C50.41 13.51 51.63 14.87 52.1 15.35C52.21 15.46 52.38 15.46 52.48 15.35C52.93 14.87 54.05 13.55 54.52 11.86C54.65 12.31 54.74 12.79 54.74 13.29Z" fill="#C52361" fill-opacity="1.000000" fill-rule="nonzero"/>
		<path id="Vector" d="M32.4 33.54C31.86 33.54 31.42 33.11 31.42 32.56L31.42 30.6C31.42 30.06 31.86 29.62 32.4 29.62C32.94 29.62 33.38 30.06 33.38 30.6L33.38 32.56C33.38 33.11 32.94 33.54 32.4 33.54Z" fill="#6875F2" fill-opacity="1.000000" fill-rule="nonzero"/>
		<path id="Vector" d="M22.33 43.61L20.37 43.61C19.83 43.61 19.39 43.17 19.39 42.63C19.39 42.09 19.83 41.65 20.37 41.65L22.33 41.65C22.87 41.65 23.31 42.09 23.31 42.63C23.31 43.17 22.87 43.61 22.33 43.61Z" fill="#6875F2" fill-opacity="1.000000" fill-rule="nonzero"/>
		<path id="Vector" d="M32.4 55.65C31.86 55.65 31.42 55.21 31.42 54.66L31.42 52.7C31.42 52.16 31.86 51.72 32.4 51.72C32.94 51.72 33.38 52.16 33.38 52.7L33.38 54.66C33.38 55.21 32.94 55.65 32.4 55.65Z" fill="#6875F2" fill-opacity="1.000000" fill-rule="nonzero"/>
		<path id="Vector" d="M21.35 43.61L20.37 43.61C19.83 43.61 19.39 43.17 19.39 42.63C19.39 42.09 19.83 41.65 20.37 41.65L20.87 41.65C20.98 42.32 21.15 42.98 21.35 43.61Z" fill="#6875F2" fill-opacity="1.000000" fill-rule="nonzero"/>
		<path id="Vector" d="M33.38 54.17L33.38 54.66C33.38 55.21 32.94 55.64 32.4 55.64C31.86 55.64 31.42 55.21 31.42 54.66L31.42 53.69C32.06 53.89 32.71 54.05 33.38 54.17Z" fill="#6875F2" fill-opacity="1.000000" fill-rule="nonzero"/>
		<path id="Vector" d="M44.43 43.61L42.47 43.61C41.93 43.61 41.49 43.17 41.49 42.63C41.49 42.09 41.93 41.65 42.47 41.65L44.43 41.65C44.97 41.65 45.41 42.09 45.41 42.63C45.41 43.17 44.97 43.61 44.43 43.61Z" fill="#6875F2" fill-opacity="1.000000" fill-rule="nonzero"/>
		<path id="Vector" d="M31.01 42.23C30.76 42.23 31.01 41.74 30.82 41.55L28.5 40.12L27.5 39.12C27.11 38.73 27.11 38.11 27.5 37.73C27.88 37.34 28.5 37.34 28.88 37.73L29.89 38.73L30.81 41.18C31.19 41.57 32.09 41.56 31.71 41.94C31.52 42.13 31.26 42.23 31.01 42.23Z" fill="#F9AF38" fill-opacity="1.000000" fill-rule="nonzero"/>
		<path id="Vector" d="M33.79 42.23C33.54 42.23 33.29 42.13 33.09 41.94C32.71 41.56 33.14 41.25 33.53 40.87L34.91 38.73L39.28 34.37C39.66 33.99 40.28 33.99 40.66 34.37C41.05 34.75 41.05 35.37 40.66 35.76L36.3 40.12L34.03 41.5C33.84 41.69 34.04 42.23 33.79 42.23Z" fill="#F9AF38" fill-opacity="1.000000" fill-rule="nonzero"/>
		<path id="Vector" d="M53.54 27.11C53.48 27.2 53.41 27.3 53.34 27.39C51.99 29.16 49.86 30.16 47.64 30.16L47.3 30.16L47.31 30.16C49.03 29.37 50.84 26.79 51.64 24.8C51.83 24.52 51.82 23.36 52.33 23.87C52.81 24.92 53.21 26.01 53.54 27.11Z" fill="#F48931" fill-opacity="1.000000" fill-rule="nonzero"/>
		<path id="Vector" d="M37.98 2.61C37.12 7.66 35.54 10.55 34.1 12.32C32.5 14.28 31.02 14.92 29.19 17.72C28.16 19.3 27.42 20.94 26.89 22.46C26.8 22.72 26.7 23.06 26.59 23.41C26.25 24.58 25.18 25.39 23.95 25.39L22.68 25.39L22.68 25.39C23.17 25.27 23.53 22.58 23.99 21.82C25.19 17.87 28.52 14.78 30.96 12.32C32.6 10.3 34.44 6.8 35.16 0.3C35.2 0.01 35.55 -0.11 35.75 0.1C36.54 0.9 37.28 1.74 37.98 2.61Z" fill="#F48931" fill-opacity="1.000000" fill-rule="nonzero"/>
		<path id="Vector" d="M34.36 42.63C34.36 43.72 33.48 44.59 32.4 44.59C31.32 44.59 30.44 43.72 30.44 42.63C30.44 41.55 31.32 40.67 32.4 40.67C33.48 40.67 34.36 41.55 34.36 42.63Z" fill="#F9AF38" fill-opacity="1.000000" fill-rule="evenodd"/>
		<path id="Vector" d="M31.71 41.94C31.52 42.13 31.26 42.23 31.01 42.23C30.76 42.23 30.51 42.13 30.32 41.94L28.5 40.12C28.86 39.56 29.33 39.09 29.89 38.73L31.71 40.55C32.09 40.94 32.09 41.56 31.71 41.94Z" fill="#F48931" fill-opacity="1.000000" fill-rule="nonzero"/>
		<path id="Vector" d="M36.3 40.12L34.48 41.94C34.29 42.13 34.04 42.23 33.79 42.23C33.54 42.23 33.29 42.13 33.09 41.94C32.71 41.56 32.71 40.94 33.09 40.55L34.91 38.73C35.47 39.09 35.94 39.56 36.3 40.12Z" fill="#F48931" fill-opacity="1.000000" fill-rule="nonzero"/>
		<path id="Vector" d="M32.4 45.58C30.78 45.58 29.46 44.26 29.46 42.63C29.46 41.01 30.78 39.69 32.4 39.69C34.02 39.69 35.34 41.01 35.34 42.63C35.34 44.26 34.02 45.58 32.4 45.58ZM32.4 41.65C31.86 41.65 31.42 42.09 31.42 42.63C31.42 43.17 31.86 43.61 32.4 43.61C32.94 43.61 33.38 43.17 33.38 42.63C33.38 42.09 32.94 41.65 32.4 41.65Z" fill="#6875F2" fill-opacity="1.000000" fill-rule="nonzero"/>
	</g>
</svg>
