<svg width="33.000000" height="33.000000" viewBox="0 0 33 33" fill="none" xmlns="http://www.w3.org/2000/svg" xmlns:xlink="http://www.w3.org/1999/xlink">
	<desc>
			Created with Pixso.
	</desc>
	<defs>
		<clipPath id="clip104_3748">
			<rect id="fi_712040" rx="0.000000" width="32.000000" height="32.000000" transform="translate(0.500000 0.500000)" fill="white" fill-opacity="0"/>
		</clipPath>
	</defs>
	<rect id="fi_712040" rx="0.000000" width="32.000000" height="32.000000" transform="translate(0.500000 0.500000)" fill="#FFFFFF" fill-opacity="0"/>
	<g clip-path="url(#clip104_3748)">
		<path id="Vector" d="M17.45 20.66C17.14 20.86 16.79 20.94 16.48 20.94C16.16 20.94 15.81 20.86 15.5 20.66L0 11.2L0 23.78C0 26.47 2.18 28.65 4.87 28.65L28.12 28.65C30.81 28.65 33 26.47 33 23.78L33 11.2L17.45 20.66Z" fill="#E82A73" fill-opacity="1.000000" fill-rule="nonzero"/>
		<path id="Vector" d="M28.12 4.34L4.87 4.34C2.57 4.34 0.62 5.98 0.15 8.16L16.51 18.13L32.84 8.16C32.37 5.98 30.42 4.34 28.12 4.34Z" fill="#E82A73" fill-opacity="1.000000" fill-rule="nonzero"/>
	</g>
</svg>
