<svg width="18.000000" height="18.000000" viewBox="0 0 18 18" fill="none" xmlns="http://www.w3.org/2000/svg" xmlns:xlink="http://www.w3.org/1999/xlink">
	<desc>
			Created with Pixso.
	</desc>
	<defs>
		<clipPath id="clip11_6">
			<rect id="fi_8742787" rx="0.000000" width="17.000000" height="17.000000" transform="translate(0.500000 0.500000)" fill="white" fill-opacity="0"/>
		</clipPath>
	</defs>
	<rect id="fi_8742787" rx="0.000000" width="17.000000" height="17.000000" transform="translate(0.500000 0.500000)" fill="#FFFFFF" fill-opacity="0"/>
	<g clip-path="url(#clip11_6)">
		<path id="Vector" d="M16.46 6.97C16.44 6.91 16.39 6.85 16.33 6.81C16.27 6.77 16.19 6.75 16.12 6.74L13.58 6.74L15.26 2.38C15.28 2.32 15.29 2.26 15.28 2.2C15.27 2.14 15.25 2.08 15.22 2.03C15.18 1.98 15.14 1.94 15.08 1.91C15.03 1.88 14.97 1.87 14.91 1.87L10 1.87C9.91 1.87 9.83 1.89 9.77 1.93C9.7 1.98 9.65 2.05 9.62 2.12L8.72 4.87L10.12 4.87C10.22 4.87 10.31 4.91 10.39 4.98C10.46 5.05 10.49 5.15 10.49 5.24C10.49 5.34 10.46 5.44 10.39 5.51C10.31 5.58 10.22 5.62 10.12 5.62L8.47 5.62L7.6 8.24L7.35 8.99L7.26 9.25C7.24 9.31 7.24 9.37 7.25 9.43C7.26 9.48 7.28 9.54 7.31 9.59C7.35 9.64 7.39 9.68 7.45 9.7C7.5 9.73 7.56 9.74 7.62 9.74L9.57 9.74L8.85 11.62L8.56 12.37L7.32 15.61C7.3 15.67 7.29 15.73 7.3 15.79C7.3 15.85 7.32 15.91 7.36 15.96C7.39 16.01 7.44 16.05 7.49 16.08C7.55 16.1 7.61 16.12 7.67 16.12C7.72 16.12 7.77 16.11 7.81 16.09C7.86 16.07 7.9 16.04 7.94 16.01L16.39 7.38C16.44 7.33 16.47 7.26 16.49 7.19C16.5 7.12 16.49 7.04 16.46 6.97Z" fill="#F32284" fill-opacity="1.000000" fill-rule="nonzero"/>
		<path id="Vector" d="M4.87 4.87C4.77 4.87 4.68 4.91 4.6 4.98C4.53 5.05 4.5 5.15 4.5 5.25C4.5 5.34 4.53 5.44 4.6 5.51C4.68 5.58 4.77 5.62 4.87 5.62L8.47 5.62L8.72 4.87L4.87 4.87Z" fill="#F32284" fill-opacity="1.000000" fill-rule="nonzero"/>
		<path id="Vector" d="M6.81 8.25L1.87 8.25C1.77 8.25 1.68 8.28 1.6 8.35C1.53 8.43 1.5 8.52 1.5 8.62C1.5 8.72 1.53 8.81 1.6 8.89C1.68 8.96 1.77 9 1.87 9L6.56 9L6.81 8.25Z" fill="#F32284" fill-opacity="1.000000" fill-rule="nonzero"/>
		<path id="Vector" d="M8.05 11.62L3.37 11.62C3.27 11.62 3.18 11.66 3.1 11.73C3.03 11.8 3 11.9 3 12C3 12.09 3.03 12.19 3.1 12.26C3.18 12.33 3.27 12.37 3.37 12.37L7.76 12.37L8.05 11.62Z" fill="#F32284" fill-opacity="1.000000" fill-rule="nonzero"/>
	</g>
</svg>
