<svg width="127.000000" height="127.000000" viewBox="0 0 127 127" fill="none" xmlns="http://www.w3.org/2000/svg" xmlns:xlink="http://www.w3.org/1999/xlink">
	<desc>
			Created with Pixso.
	</desc>
	<defs>
		<clipPath id="clip104_3880">
			<rect id="fi_476863" rx="0.000000" width="126.000000" height="126.000000" transform="translate(0.500000 0.500000)" fill="white" fill-opacity="0"/>
		</clipPath>
	</defs>
	<rect id="fi_476863" rx="0.000000" width="126.000000" height="126.000000" transform="translate(0.500000 0.500000)" fill="#FFFFFF" fill-opacity="0"/>
	<g clip-path="url(#clip104_3880)">
		<path id="Vector" d="M92.17 56.33L92.17 57.76C92.17 59.52 92.46 61.27 93.01 62.94L96.27 72.71L102.42 72.71L102.42 50.18L98.32 50.18C94.92 50.18 92.17 52.93 92.17 56.33Z" fill="#5A4146" fill-opacity="1.000000" fill-rule="nonzero"/>
		<path id="Vector" d="M120.22 60.58L116.75 72.71L100.37 58.37C98.1 58.37 96.27 56.54 96.27 54.28C96.27 50.88 99.02 48.13 102.42 48.13L116.75 48.13C119.02 48.13 120.85 49.97 120.85 52.23L120.85 56.08C120.85 57.6 120.64 59.12 120.22 60.58Z" fill="#694B4B" fill-opacity="1.000000" fill-rule="nonzero"/>
		<path id="Vector" d="M100.37 78.86L112.66 78.86L112.66 87.92L100.37 87.92L100.37 78.86Z" fill="#E6AF78" fill-opacity="1.000000" fill-rule="evenodd"/>
		<path id="Vector" d="M100.37 82.62C102.27 83.39 104.34 83.83 106.51 83.83C108.68 83.83 110.76 83.39 112.66 82.62L112.66 78.86L100.37 78.86L100.37 82.62Z" fill="#D29B6E" fill-opacity="1.000000" fill-rule="nonzero"/>
		<path id="Vector" d="M122.54 86.65L112.66 83.83L106.51 87.9L100.37 83.83L90.48 86.65C87.85 87.4 86.03 89.82 86.03 92.56L86.03 107.54C86.03 108.67 86.94 109.58 88.08 109.58L124.95 109.58C126.08 109.58 127 108.67 127 107.54L127 92.56C127 89.82 125.18 87.4 122.54 86.65Z" fill="#D5DCED" fill-opacity="1.000000" fill-rule="nonzero"/>
		<path id="Vector" d="M108.56 109.58L104.46 109.58L105.49 87.92L107.54 87.92L108.56 109.58Z" fill="#AFB9D2" fill-opacity="1.000000" fill-rule="nonzero"/>
		<path id="Vector" d="M106.51 80.91C99.72 80.91 94.22 75.4 94.22 68.62L94.22 66.22C94.22 65.13 94.65 64.09 95.42 63.32L99.13 59.6C99.92 58.82 101 58.37 102.11 58.4C108.66 58.61 114.45 60.01 117.62 63.1C118.4 63.86 118.8 64.92 118.8 66.01L118.8 68.62C118.8 75.4 113.3 80.91 106.51 80.91Z" fill="#F0C087" fill-opacity="1.000000" fill-rule="nonzero"/>
		<path id="Vector" d="M100.37 66.72C100.37 64.36 102.35 62.48 104.71 62.63C108.84 62.9 114.98 63.59 118.74 65.4C118.62 64.53 118.25 63.72 117.62 63.1C114.45 60.01 108.66 58.61 102.11 58.4L102.11 58.4C101 58.37 99.92 58.82 99.13 59.6L95.42 63.32C94.65 64.09 94.22 65.13 94.22 66.22L94.22 68.62C94.22 74.22 97.98 78.94 103.11 80.42C101.4 78.31 100.37 75.64 100.37 72.71L100.37 66.72Z" fill="#E6AF78" fill-opacity="1.000000" fill-rule="nonzero"/>
		<path id="Vector" d="M118.8 98.66C118.8 97.03 119.45 95.47 120.6 94.32L125.87 89.04C126.58 90.05 127 91.26 127 92.56L127 107.54C127 108.67 126.08 109.58 124.95 109.58L118.8 109.58L118.8 98.66Z" fill="#C7CFE2" fill-opacity="1.000000" fill-rule="nonzero"/>
		<path id="Vector" d="M107.54 92.02L105.49 92.02C104.92 92.02 104.46 91.56 104.46 91L104.46 87.92L108.56 87.92L108.56 91C108.56 91.56 108.1 92.02 107.54 92.02Z" fill="#959CB5" fill-opacity="1.000000" fill-rule="nonzero"/>
		<path id="Vector" d="M106.51 87.91L103.04 90.56C102.44 91.01 101.58 90.83 101.22 90.17L98.1 84.48L99.35 82.57C99.63 82.15 100.22 82.07 100.6 82.42L106.51 87.91Z" fill="#C7CFE2" fill-opacity="1.000000" fill-rule="nonzero"/>
		<path id="Vector" d="M106.51 87.91L109.98 90.56C110.58 91.01 111.45 90.83 111.81 90.17L114.92 84.48L113.67 82.57C113.39 82.15 112.8 82.07 112.43 82.42L106.51 87.91Z" fill="#C7CFE2" fill-opacity="1.000000" fill-rule="nonzero"/>
		<path id="Vector" d="M36.66 80.05C34.91 75.41 33.52 67.44 33.22 63.29C32.65 55.39 26.7 48.95 18.65 48.95C10.61 48.95 4.65 55.39 4.08 63.29C3.78 67.44 2.39 75.41 0.64 80.05C0.26 81.07 0.7 82.2 1.71 82.66C3.59 83.51 7.58 85.17 12.41 85.82L24.9 85.82C29.7 85.17 33.73 83.5 35.6 82.66C36.6 82.2 37.05 81.07 36.66 80.05Z" fill="#5A4146" fill-opacity="1.000000" fill-rule="nonzero"/>
		<path id="Vector" d="M35.6 82.66C36.6 82.2 37.05 81.07 36.66 80.05C34.91 75.41 33.52 67.44 33.22 63.29C32.65 55.39 26.7 48.95 18.65 48.95C18.63 48.95 18.61 48.95 18.59 48.95C12.42 48.98 10.24 57.4 15.55 60.54C15.87 60.73 16.07 60.82 16.07 60.82L20.73 85.82L24.9 85.82C29.7 85.17 33.73 83.5 35.6 82.66Z" fill="#694B4B" fill-opacity="1.000000" fill-rule="nonzero"/>
		<path id="Vector" d="M33.47 89.93L26.84 86.62C25.45 85.93 24.58 84.51 24.58 82.96L24.58 76.81L12.29 76.81L12.29 82.96C12.29 84.51 11.41 85.93 10.02 86.62L3.39 89.93C1.31 90.97 0 93.1 0 95.43L0 107.54C0 108.67 0.91 109.58 2.04 109.58L34.82 109.58C35.95 109.58 36.87 108.67 36.87 107.54L36.87 95.43C36.87 93.1 35.55 90.97 33.47 89.93Z" fill="#E6AF78" fill-opacity="1.000000" fill-rule="nonzero"/>
		<path id="Vector" d="M18.43 85C20.64 85 22.75 84.55 24.69 83.74C24.63 83.48 24.58 83.22 24.58 82.95L24.58 76.81L12.29 76.81L12.29 82.96C12.29 83.23 12.23 83.48 12.17 83.74C14.11 84.55 16.22 85 18.43 85Z" fill="#D29B6E" fill-opacity="1.000000" fill-rule="nonzero"/>
		<path id="Vector" d="M33.47 89.93L28.75 87.57C26.56 90.95 22.76 93.2 18.43 93.2C14.1 93.2 10.3 90.95 8.11 87.57L3.39 89.93C1.31 90.97 0 93.1 0 95.43L0 107.54C0 108.67 0.91 109.58 2.04 109.58L34.82 109.58C35.95 109.58 36.87 108.67 36.87 107.54L36.87 95.43C36.87 93.1 35.55 90.97 33.47 89.93Z" fill="#D5DCED" fill-opacity="1.000000" fill-rule="nonzero"/>
		<path id="Vector" d="M18.43 80.91C12.18 80.91 7.02 76.24 6.24 70.21C6.13 69.33 6.55 68.47 7.34 68.08C8.28 67.6 9.65 66.8 10.96 65.63C12.42 64.33 13.28 62.95 13.77 61.94C14.18 61.07 15.14 60.58 16.08 60.82C23.29 62.66 28.2 66.41 29.98 67.94C30.46 68.35 30.73 68.96 30.68 69.59C30.19 75.92 24.89 80.91 18.43 80.91Z" fill="#F0C087" fill-opacity="1.000000" fill-rule="nonzero"/>
		<path id="Vector" d="M29.98 67.94C28.2 66.41 23.29 62.66 16.08 60.82C15.14 60.58 14.18 61.07 13.77 61.94C13.4 62.71 12.79 63.68 11.89 64.67C11.89 64.68 11.89 64.68 11.89 64.68C11.61 65 11.32 65.31 10.96 65.63C9.65 66.8 8.28 67.6 7.34 68.08C6.55 68.47 6.13 69.33 6.24 70.21C6.94 75.63 11.19 79.94 16.57 80.77C14.12 79.1 12.29 76.8 12.29 72.71L12.29 69.79C12.75 69.45 13.22 69.11 13.69 68.69C14.83 67.67 15.82 66.49 16.62 65.23C22.14 66.95 25.88 69.82 27.3 71.04C27.68 71.38 28.65 72.27 29.77 73.32C30.26 72.16 30.58 70.9 30.68 69.59C30.73 68.96 30.46 68.35 29.98 67.94Z" fill="#E6AF78" fill-opacity="1.000000" fill-rule="nonzero"/>
		<path id="Vector" d="M1.24 91.74C0.45 92.78 0 94.07 0 95.43L0 107.54C0 108.67 0.91 109.58 2.04 109.58L8.19 109.58L8.19 99.26C8.19 98.02 7.62 96.84 6.65 96.06L1.24 91.74Z" fill="#C7CFE2" fill-opacity="1.000000" fill-rule="nonzero"/>
		<path id="Vector" d="M92.92 87.14L75.79 80.91L63.5 85L51.21 80.91L34.07 87.14C30.83 88.32 28.67 91.39 28.67 94.84L28.67 107.54C28.67 108.67 29.59 109.58 30.72 109.58L96.27 109.58C97.4 109.58 98.32 108.67 98.32 107.54L98.32 94.84C98.32 91.39 96.16 88.32 92.92 87.14Z" fill="#FF507D" fill-opacity="1.000000" fill-rule="nonzero"/>
		<path id="Vector" d="M61.35 89.1L59.4 109.58L67.59 109.58L65.64 89.1L61.35 89.1Z" fill="#707487" fill-opacity="1.000000" fill-rule="nonzero"/>
		<path id="Vector" d="M65.65 91.91L61.34 91.91C60.55 91.91 59.91 91.27 59.91 90.48L59.91 85L67.08 85L67.08 90.48C67.08 91.27 66.44 91.91 65.65 91.91Z" fill="#5B5D6E" fill-opacity="1.000000" fill-rule="nonzero"/>
		<path id="Vector" d="M96.11 89.26C97.5 90.74 98.32 92.72 98.32 94.84L98.32 107.54C98.32 108.67 97.4 109.58 96.27 109.58L86.03 109.58L86.03 102.74C86.03 100.56 86.89 98.48 88.43 96.94L96.11 89.26Z" fill="#D23C69" fill-opacity="1.000000" fill-rule="nonzero"/>
		<path id="Vector" d="M86.03 38.66L86.03 21.5C86.03 19.24 84.19 17.41 81.93 17.41L57.35 17.41C48.3 17.41 40.96 24.74 40.96 33.79L40.96 38.66C40.96 40.86 41.32 43.05 42.01 45.14L42.7 47.19C42.91 47.81 43.01 48.47 43.01 49.13L43.01 50.18L83.98 50.18L83.98 49.13C83.98 48.47 84.08 47.81 84.29 47.19L84.98 45.14C85.67 43.05 86.03 40.86 86.03 38.66Z" fill="#5A4146" fill-opacity="1.000000" fill-rule="nonzero"/>
		<path id="Vector" d="M51.21 25.73C51.21 30.32 54.93 34.05 59.53 34.05L60.68 34.05L61.23 50.18L83.98 50.18L83.98 49.13C83.98 48.47 84.08 47.81 84.29 47.19L84.98 45.14C85.67 43.05 86.03 40.86 86.03 38.66L86.03 21.5C86.03 19.24 84.19 17.41 81.93 17.41L59.53 17.41C54.93 17.41 51.21 21.13 51.21 25.73Z" fill="#694B4B" fill-opacity="1.000000" fill-rule="nonzero"/>
		<path id="Vector" d="M51.2 66.57L75.79 66.57L75.79 85L51.2 85L51.2 66.57Z" fill="#E6AF78" fill-opacity="1.000000" fill-rule="evenodd"/>
		<path id="Vector" d="M51.21 73.49C54.82 75.59 59.01 76.81 63.5 76.81C67.98 76.81 72.17 75.59 75.79 73.49L75.79 66.57L51.21 66.57L51.21 73.49Z" fill="#D29B6E" fill-opacity="1.000000" fill-rule="nonzero"/>
		<path id="Vector" d="M63.5 85L56.96 91.54C56.08 92.41 54.63 92.32 53.88 91.33L47.11 82.4L48.88 78.67C49.4 77.56 50.77 77.16 51.8 77.8L63.5 85Z" fill="#D23C69" fill-opacity="1.000000" fill-rule="nonzero"/>
		<path id="Vector" d="M63.5 85L70.03 91.54C70.91 92.41 72.36 92.32 73.11 91.33L79.88 82.4L78.11 78.67C77.59 77.56 76.22 77.16 75.19 77.8L63.5 85Z" fill="#D23C69" fill-opacity="1.000000" fill-rule="nonzero"/>
		<path id="Vector" d="M63.5 72.71C52.18 72.71 43.01 63.54 43.01 52.23L43.01 49.83C43.01 48.74 43.44 47.7 44.21 46.93L45.91 45.24C46.68 44.47 47.11 43.42 47.11 42.34L47.11 37.43C47.11 36.48 47.74 35.66 48.67 35.44C53.51 34.29 68.59 31.58 78.85 39.13C79.51 39.62 79.88 40.42 79.88 41.25L79.88 42.34C79.88 43.42 80.31 44.47 81.08 45.24L82.78 46.93C83.55 47.7 83.98 48.74 83.98 49.83L83.98 52.23C83.98 63.54 74.81 72.71 63.5 72.71Z" fill="#F0C087" fill-opacity="1.000000" fill-rule="nonzero"/>
		<path id="Vector" d="M78.85 39.13C71.63 33.82 62.05 33.59 55.3 34.32C52.46 34.62 50.1 35.1 48.67 35.44C47.75 35.66 47.11 36.48 47.11 37.43L47.11 42.34C47.11 43.42 46.68 44.47 45.91 45.24L44.21 46.93C43.44 47.7 43.01 48.74 43.01 49.83L43.01 52.23C43.01 62.7 50.88 71.32 61.02 72.55C57.49 68.87 55.3 63.88 55.3 58.37L55.3 43.4C55.3 41.33 56.84 39.59 58.9 39.33C63.82 38.72 72.82 38.35 79.88 42.34L79.88 41.25C79.88 40.42 79.51 39.62 78.85 39.13Z" fill="#E6AF78" fill-opacity="1.000000" fill-rule="nonzero"/>
		<path id="Vector" d="M30.88 89.26C29.5 90.74 28.67 92.72 28.67 94.84L28.67 107.54C28.67 108.67 29.59 109.58 30.72 109.58L40.96 109.58L40.96 102.74C40.96 100.56 40.1 98.48 38.56 96.94L30.88 89.26Z" fill="#D23C69" fill-opacity="1.000000" fill-rule="nonzero"/>
	</g>
</svg>
