<svg width="64.000000" height="64.000000" viewBox="0 0 64 64" fill="none" xmlns="http://www.w3.org/2000/svg" xmlns:xlink="http://www.w3.org/1999/xlink">
	<desc>
			Created with Pixso.
	</desc>
	<defs>
		<clipPath id="clip104_3278">
			<rect id="fi_2665050" rx="0.000000" width="63.000000" height="63.000000" transform="matrix(-1 0 0 1 64.5 0.5)" fill="white" fill-opacity="0"/>
		</clipPath>
	</defs>
	<rect id="fi_2665050" rx="0.000000" width="63.000000" height="63.000000" transform="matrix(-1 0 0 1 64.5 0.5)" fill="#FFFFFF" fill-opacity="0"/>
	<g clip-path="url(#clip104_3278)">
		<path id="Vector" d="M51.7 35.65L57.25 51.42L59.31 53.48L50.29 62.5L38.19 50.4L29.32 34.54L44.3 31.46C47.47 30.81 50.63 32.6 51.7 35.65Z" fill="#FFCBBE" fill-opacity="1.000000" fill-rule="nonzero"/>
		<path id="Vector" d="M43.28 46.98L42.92 47.35L33.65 38.07L36.7 35.02L43.28 41.6C44.77 43.09 44.77 45.5 43.28 46.98Z" fill="#EAAC9D" fill-opacity="1.000000" fill-rule="nonzero"/>
		<path id="Vector" d="M11.25 6.56C2.85 14.96 2.47 28.2 10.4 36.13C18.33 44.06 31.57 43.68 39.97 35.28C48.37 26.88 48.75 13.64 40.82 5.71C32.89 -2.22 19.65 -1.84 11.25 6.56Z" fill="#80CB8E" fill-opacity="1.000000" fill-rule="evenodd"/>
		<path id="Vector" d="M21.92 41.69C28.22 42.45 34.95 40.29 39.97 35.28C48.37 26.87 48.75 13.63 40.82 5.7C36.39 1.27 30.3 -0.57 24.33 0.14C28.59 0.65 32.66 2.5 35.86 5.7C43.79 13.63 43.41 26.87 35 35.28C31.29 38.99 26.64 41.13 21.92 41.69Z" fill="#6EC17D" fill-opacity="1.000000" fill-rule="nonzero"/>
		<path id="Vector" d="M25.64 34.06C24.87 34.06 24.14 33.72 23.64 33.11L14.01 21.29C13.11 20.19 13.28 18.57 14.38 17.67C15.48 16.77 17.1 16.94 18 18.04L25.16 26.82L33.5 10.77C34.16 9.51 35.72 9.02 36.98 9.67C38.24 10.33 38.73 11.88 38.08 13.15L27.93 32.67C27.53 33.44 26.77 33.96 25.9 34.05C25.82 34.06 25.73 34.06 25.64 34.06Z" fill="#F9F6F9" fill-opacity="1.000000" fill-rule="nonzero"/>
		<path id="Vector" d="M29.43 32.33L54.95 57.84L48.79 63.99L45.43 60.63L42.36 60.68C36.4 60.79 31.36 56.29 30.79 50.35L30.48 47.06L22.59 39.17C21.65 38.22 21.18 36.99 21.18 35.75C21.18 34.51 21.65 33.27 22.59 32.33C24.48 30.44 27.54 30.44 29.43 32.33Z" fill="#FFCBBE" fill-opacity="1.000000" fill-rule="nonzero"/>
		<path id="Vector" d="M32.69 45.12C33.41 52.78 39.91 58.59 47.61 58.44L50.98 61.81L48.79 63.99L45.43 60.63L42.36 60.68C36.4 60.79 31.36 56.29 30.79 50.35L30.48 47.06L22.59 39.17C21.65 38.22 21.18 36.99 21.18 35.75C21.18 34.51 21.65 33.27 22.59 32.33C22.97 31.95 23.4 31.64 23.86 31.42C23.52 32.09 23.36 32.83 23.36 33.57C23.36 34.8 23.83 36.04 24.77 36.98L32.66 44.87L32.69 45.12Z" fill="#EAAC9D" fill-opacity="1.000000" fill-rule="nonzero"/>
	</g>
</svg>
