<svg width="121.000000" height="121.000000" viewBox="0 0 121 121" fill="none" xmlns="http://www.w3.org/2000/svg" xmlns:xlink="http://www.w3.org/1999/xlink">
	<desc>
			Created with Pixso.
	</desc>
	<defs>
		<clipPath id="clip104_3917">
			<rect id="fi_3038022" rx="0.000000" width="120.000000" height="120.000000" transform="translate(0.500000 0.500000)" fill="white" fill-opacity="0"/>
		</clipPath>
	</defs>
	<rect id="fi_3038022" rx="0.000000" width="120.000000" height="120.000000" transform="translate(0.500000 0.500000)" fill="#FFFFFF" fill-opacity="0"/>
	<g clip-path="url(#clip104_3917)">
		<path id="Vector" d="M113.69 1.53L106.39 1.53L113.69 67.26L117.88 71.45C119.03 72.6 121 71.78 121 70.16L121 8.83C121 4.8 117.73 1.53 113.69 1.53Z" fill="#FFD45E" fill-opacity="1.000000" fill-rule="nonzero"/>
		<path id="Vector" d="M106.39 1.53L36.51 1.53C32.48 1.53 29.21 4.8 29.21 8.83L29.21 59.96L106.39 59.96L113.69 67.26L113.69 8.83C113.69 4.8 110.42 1.53 106.39 1.53Z" fill="#FFE88C" fill-opacity="1.000000" fill-rule="nonzero"/>
		<path id="Vector" d="M84.48 49L77.17 49L77.17 107.43L84.48 107.43C88.51 107.43 91.78 104.16 91.78 100.13L91.78 56.31C91.78 52.27 88.51 49 84.48 49Z" fill="#5E70F2" fill-opacity="1.000000" fill-rule="nonzero"/>
		<path id="Vector" d="M84.48 100.13L84.48 56.31C84.48 52.27 81.21 49 77.17 49L7.3 49C3.26 49 0 52.27 0 56.31L0 117.63C0 119.26 1.96 120.07 3.11 118.92L14.6 107.43L77.17 107.43C81.21 107.43 84.48 104.16 84.48 100.13Z" fill="#738CFF" fill-opacity="1.000000" fill-rule="nonzero"/>
		<path id="Vector" d="M34.93 78.22C34.93 80.23 33.3 81.87 31.28 81.87C29.26 81.87 27.63 80.23 27.63 78.22C27.63 76.2 29.26 74.57 31.28 74.57C33.3 74.57 34.93 76.2 34.93 78.22Z" fill="#FFE88C" fill-opacity="1.000000" fill-rule="evenodd"/>
		<path id="Vector" d="M49.54 78.22C49.54 80.23 47.9 81.87 45.89 81.87C43.87 81.87 42.24 80.23 42.24 78.22C42.24 76.2 43.87 74.57 45.89 74.57C47.9 74.57 49.54 76.2 49.54 78.22Z" fill="#FFE88C" fill-opacity="1.000000" fill-rule="evenodd"/>
		<path id="Vector" d="M64.15 78.22C64.15 80.23 62.51 81.87 60.5 81.87C58.48 81.87 56.84 80.23 56.84 78.22C56.84 76.2 58.48 74.57 60.5 74.57C62.51 74.57 64.15 76.2 64.15 78.22Z" fill="#FFE88C" fill-opacity="1.000000" fill-rule="evenodd"/>
		<path id="Vector" d="M93.36 30.74C93.36 32.76 91.73 34.39 89.71 34.39C87.69 34.39 86.06 32.76 86.06 30.74C86.06 28.73 87.69 27.09 89.71 27.09C91.73 27.09 93.36 28.73 93.36 30.74Z" fill="#738CFF" fill-opacity="1.000000" fill-rule="evenodd"/>
		<path id="Vector" d="M78.75 30.74C78.75 32.76 77.12 34.39 75.1 34.39C73.09 34.39 71.45 32.76 71.45 30.74C71.45 28.73 73.09 27.09 75.1 27.09C77.12 27.09 78.75 28.73 78.75 30.74Z" fill="#738CFF" fill-opacity="1.000000" fill-rule="evenodd"/>
		<path id="Vector" d="M64.15 30.74C64.15 32.76 62.51 34.39 60.5 34.39C58.48 34.39 56.84 32.76 56.84 30.74C56.84 28.73 58.48 27.09 60.5 27.09C62.51 27.09 64.15 28.73 64.15 30.74Z" fill="#738CFF" fill-opacity="1.000000" fill-rule="evenodd"/>
	</g>
</svg>
