<svg width="31.000000" height="31.000000" viewBox="0 0 31 31" fill="none" xmlns="http://www.w3.org/2000/svg" xmlns:xlink="http://www.w3.org/1999/xlink">
	<desc>
			Created with Pixso.
	</desc>
	<defs>
		<clipPath id="clip104_3730">
			<rect id="fi_2111532" rx="0.000000" width="30.000000" height="30.000000" transform="translate(0.500000 0.500000)" fill="white" fill-opacity="0"/>
		</clipPath>
	</defs>
	<rect id="fi_2111532" rx="0.000000" width="30.000000" height="30.000000" transform="translate(0.500000 0.500000)" fill="#FFFFFF" fill-opacity="0"/>
	<g clip-path="url(#clip104_3730)">
		<path id="Vector" d="M30.99 31L31 30.99L31 19.62C31 14.06 29.8 9.78 23.29 9.78C20.17 9.78 18.07 11.49 17.22 13.12L17.12 13.12L17.12 10.3L10.96 10.3L10.96 30.99L17.38 30.99L17.38 20.75C17.38 18.05 17.89 15.44 21.23 15.44C24.53 15.44 24.57 18.52 24.57 20.92L24.57 31L30.99 31Z" fill="#E82A73" fill-opacity="1.000000" fill-rule="nonzero"/>
		<path id="Vector" d="M0.51 10.3L6.93 10.3L6.93 31L0.51 31L0.51 10.3Z" fill="#E82A73" fill-opacity="1.000000" fill-rule="nonzero"/>
		<path id="Vector" d="M3.72 0C1.66 0 0 1.66 0 3.72C0 5.77 1.66 7.48 3.72 7.48C5.77 7.48 7.44 5.77 7.44 3.72C7.44 1.66 5.77 0 3.72 0Z" fill="#E82A73" fill-opacity="1.000000" fill-rule="nonzero"/>
	</g>
</svg>
