<svg width="68.000000" height="68.000000" viewBox="0 0 68 68" fill="none" xmlns="http://www.w3.org/2000/svg" xmlns:xlink="http://www.w3.org/1999/xlink">
	<desc>
			Created with Pixso.
	</desc>
	<defs>
		<clipPath id="clip104_3264">
			<rect id="fi_7378033" rx="0.000000" width="67.000000" height="67.000000" transform="translate(0.500000 0.500000)" fill="white" fill-opacity="0"/>
		</clipPath>
	</defs>
	<rect id="fi_7378033" rx="0.000000" width="67.000000" height="67.000000" transform="translate(0.500000 0.500000)" fill="#FFFFFF" fill-opacity="0"/>
	<g clip-path="url(#clip104_3264)">
		<path id="Vector" d="M60.96 57.8L54.67 46.87L38.94 55.9L45.26 66.86C46.1 68.32 48.19 68.38 49.11 66.98L49.89 65.81L51.84 60.42L57.74 61.27L59.14 61.19C60.82 61.09 61.81 59.25 60.96 57.8Z" fill="#E82A73" fill-opacity="1.000000" fill-rule="nonzero"/>
		<path id="Vector" d="M60.96 57.8L54.67 46.87L52.31 48.22L58.01 57.99C58.62 59.05 58.27 60.32 57.37 60.96C57.11 61.15 57.47 61.07 57.47 61.07L57.75 61.27L59.14 61.19C60.82 61.09 61.81 59.25 60.96 57.8Z" fill="#F23C3C" fill-opacity="1.000000" fill-rule="nonzero"/>
		<path id="Vector" d="M12.97 47.28L6.89 57.8C6.05 59.25 7.04 61.09 8.72 61.19L10.12 61.27L15.76 61.13L17.97 65.81L18.74 66.98C19.67 68.38 21.75 68.32 22.6 66.86L28.71 56.27L12.97 47.28Z" fill="#E82A73" fill-opacity="1.000000" fill-rule="nonzero"/>
		<path id="Vector" d="M57.74 61.27L51.07 49.73L43.21 54.24L49.89 65.81L51.43 63.47C52.22 62.28 53.52 61.53 54.94 61.44L57.74 61.27Z" fill="#F3F5F9" fill-opacity="1.000000" fill-rule="nonzero"/>
		<path id="Vector" d="M16.81 49.68L10.12 61.28L12.91 61.44C14.34 61.53 15.64 62.28 16.43 63.47L17.97 65.81L24.68 54.18L16.81 49.68Z" fill="#F3F5F9" fill-opacity="1.000000" fill-rule="nonzero"/>
		<path id="Vector" d="M46 55.18L50.27 51.3L53.27 47.47L58.12 45.91C58.66 45.43 59.13 44.86 59.51 44.2C60.47 42.54 60.65 40.65 60.16 38.95C59.7 37.29 60.17 35.54 61.4 34.35C62.67 33.11 63.46 31.38 63.46 29.47C63.46 27.55 62.67 25.83 61.4 24.59C60.17 23.39 59.7 21.64 60.17 19.99C60.65 18.28 60.47 16.39 59.52 14.73C58.56 13.08 57.01 11.97 55.29 11.54C53.63 11.12 52.34 9.84 51.92 8.17C51.49 6.45 50.39 4.9 48.73 3.94C47.08 2.99 45.18 2.81 43.48 3.29C41.83 3.76 40.07 3.29 38.88 2.06C37.64 0.79 35.91 0 34 0C32.08 0 30.36 0.79 29.12 2.06C27.93 3.29 26.17 3.76 24.52 3.29C22.81 2.8 20.92 2.98 19.26 3.94C17.61 4.9 16.51 6.45 16.07 8.17C15.65 9.83 14.37 11.11 12.7 11.53C10.98 11.97 9.43 13.07 8.48 14.73C7.52 16.38 7.34 18.27 7.82 19.98C8.29 21.63 7.82 23.38 6.59 24.58C5.32 25.82 4.53 27.54 4.53 29.46C4.53 31.37 5.32 33.1 6.59 34.34C7.82 35.53 8.29 37.28 7.82 38.94C7.34 40.64 7.51 42.54 8.47 44.19C9.43 45.85 10.98 46.95 12.7 47.39C14.36 47.81 15.64 49.09 16.06 50.75C16.5 52.47 17.6 54.02 19.26 54.98C20.91 55.94 22.81 56.12 24.51 55.63C26.16 55.16 27.92 55.63 29.11 56.87C30.35 58.14 32.08 58.93 33.99 58.93C35.9 58.93 37.63 58.14 38.87 56.87C40.06 55.64 41.82 55.17 43.47 55.64C43.56 55.66 43.66 55.69 43.75 55.71L46 55.18Z" fill="#FFD659" fill-opacity="1.000000" fill-rule="nonzero"/>
		<path id="Vector" d="M35.02 49.73L40.91 48.23L49.61 41.14L51.48 33.05L51.48 20.89L44.09 12.19L34.9 9.12L32.43 9.12C21.89 9.92 13.6 18.72 13.6 29.46C13.6 40.2 21.89 49 32.42 49.8L35.02 49.73Z" fill="#FFB347" fill-opacity="1.000000" fill-rule="nonzero"/>
		<path id="Vector" d="M36.03 18.35L38.16 22.66C38.32 22.99 38.64 23.22 39.01 23.28L43.76 23.97C45.61 24.24 46.36 26.52 45.01 27.83L41.58 31.18C41.31 31.44 41.19 31.82 41.25 32.18L42.06 36.91C42.38 38.76 40.44 40.18 38.77 39.3L34.53 37.07C34.2 36.9 33.8 36.9 33.47 37.07L29.23 39.3C27.56 40.18 25.62 38.76 25.94 36.91L26.75 32.18C26.81 31.82 26.69 31.44 26.42 31.18L22.99 27.83C21.64 26.52 22.38 24.24 24.24 23.97L28.99 23.28C29.36 23.22 29.68 22.99 29.84 22.66L31.97 18.35C32.8 16.67 35.2 16.67 36.03 18.35Z" fill="#FFD659" fill-opacity="1.000000" fill-rule="nonzero"/>
		<path id="Vector" d="M63.46 29.47C63.46 27.55 62.67 25.83 61.4 24.59C60.17 23.39 59.7 21.64 60.17 19.99C60.65 18.28 60.47 16.39 59.52 14.73C58.56 13.08 57.01 11.97 55.29 11.54C53.63 11.12 52.34 9.84 51.92 8.17C51.49 6.45 50.39 4.9 48.73 3.94C47.17 3.04 45.39 2.83 43.76 3.22C44.39 3.37 45 3.61 45.58 3.94C47.24 4.9 48.34 6.45 48.78 8.17C49.2 9.84 50.48 11.12 52.15 11.54C53.86 11.97 55.41 13.08 56.37 14.73C57.33 16.39 57.51 18.28 57.02 19.99C56.55 21.64 57.02 23.39 58.25 24.59C59.53 25.83 60.32 27.55 60.32 29.47C60.32 31.38 59.52 33.11 58.25 34.35C57.02 35.54 56.55 37.29 57.02 38.95C57.5 40.65 57.32 42.54 56.37 44.2C55.41 45.86 53.86 46.96 52.14 47.39C50.47 47.81 49.19 49.1 48.77 50.76C48.34 52.48 47.24 54.03 45.58 54.99C44.99 55.32 44.38 55.56 43.75 55.71C45.38 56.1 47.16 55.89 48.73 54.99C50.38 54.03 51.48 52.48 51.92 50.76C52.34 49.1 53.62 47.81 55.29 47.39C57.01 46.96 58.56 45.86 59.51 44.2C60.47 42.54 60.65 40.65 60.16 38.95C59.7 37.29 60.17 35.54 61.4 34.35C62.67 33.11 63.46 31.38 63.46 29.47Z" fill="#FFC552" fill-opacity="1.000000" fill-rule="nonzero"/>
		<path id="Vector" d="M34 9.06C33.47 9.06 32.95 9.08 32.43 9.12C42.96 9.92 51.25 18.72 51.25 29.46C51.25 40.2 42.96 49 32.43 49.8C32.95 49.84 33.47 49.86 34 49.86C45.27 49.86 54.4 40.73 54.4 29.46C54.4 18.2 45.27 9.06 34 9.06Z" fill="#FF9E3D" fill-opacity="1.000000" fill-rule="nonzero"/>
		<path id="Vector" d="M57.36 61.3L57.74 61.27L57.5 60.86C57.21 61.11 56.85 61.28 56.45 61.35L57.36 61.3Z" fill="#E1E6F0" fill-opacity="1.000000" fill-rule="nonzero"/>
	</g>
</svg>
