<svg width="127.000000" height="127.000000" viewBox="0 0 127 127" fill="none" xmlns="http://www.w3.org/2000/svg" xmlns:xlink="http://www.w3.org/1999/xlink">
	<desc>
			Created with Pixso.
	</desc>
	<defs>
		<clipPath id="clip104_3812">
			<rect id="fi_1535019" rx="0.000000" width="126.000000" height="126.000000" transform="translate(0.500000 0.500000)" fill="white" fill-opacity="0"/>
		</clipPath>
	</defs>
	<rect id="fi_1535019" rx="0.000000" width="126.000000" height="126.000000" transform="translate(0.500000 0.500000)" fill="#FFFFFF" fill-opacity="0"/>
	<g clip-path="url(#clip104_3812)">
		<path id="Vector" d="M107.07 70.8L91.89 70.8C89.41 70.8 87.4 72.81 87.4 75.29L87.4 93.45C87.4 90.97 85.39 88.96 82.91 88.96L67.73 88.96C65.25 88.96 63.24 90.97 63.24 93.45L63.24 105.43C63.24 102.95 61.23 100.94 58.75 100.94L43.57 100.94C41.08 100.94 39.08 102.95 39.08 105.43L39.08 116.58C39.08 114.1 37.06 112.09 34.58 112.09L19.4 112.09C16.92 112.09 14.91 114.1 14.91 116.58L14.91 125.1L111.56 125.1L111.56 75.29C111.56 72.81 109.55 70.8 107.07 70.8Z" fill="#A7C7D3" fill-opacity="1.000000" fill-rule="nonzero"/>
		<path id="Vector" d="M93.96 72.7C92.91 72.7 92.06 71.85 92.06 70.8L92.06 1.89C92.06 0.84 92.91 0 93.96 0C95 0 95.85 0.84 95.85 1.89L95.85 70.8C95.85 71.85 95 72.7 93.96 72.7Z" fill="#A7C7D3" fill-opacity="1.000000" fill-rule="nonzero"/>
		<path id="Vector" d="M39.08 125.1L14.91 125.1L14.91 116.58C14.91 114.1 16.92 112.09 19.4 112.09L34.58 112.09C37.06 112.09 39.08 114.1 39.08 116.58L39.08 125.1Z" fill="#A7C7D3" fill-opacity="1.000000" fill-rule="nonzero"/>
		<path id="Vector" d="M63.24 125.1L39.08 125.1L39.08 105.43C39.08 102.95 41.09 100.94 43.57 100.94L58.75 100.94C61.23 100.94 63.24 102.95 63.24 105.43L63.24 125.1Z" fill="#89B4C9" fill-opacity="1.000000" fill-rule="nonzero"/>
		<path id="Vector" d="M87.4 125.1L63.24 125.1L63.24 93.45C63.24 90.97 65.25 88.96 67.73 88.96L82.91 88.96C85.39 88.96 87.4 90.97 87.4 93.45L87.4 125.1Z" fill="#6C96B3" fill-opacity="1.000000" fill-rule="nonzero"/>
		<path id="Vector" d="M111.56 125.1L87.4 125.1L87.4 75.29C87.4 72.81 89.41 70.8 91.89 70.8L107.07 70.8C109.55 70.8 111.56 72.81 111.56 75.29L111.56 125.1Z" fill="#618AAA" fill-opacity="1.000000" fill-rule="nonzero"/>
		<path id="Vector" d="M118.26 127L8.59 127C7.54 127 6.69 126.15 6.69 125.1C6.69 124.05 7.54 123.2 8.59 123.2L118.26 123.2C119.3 123.2 120.15 124.05 120.15 125.1C120.15 126.15 119.3 127 118.26 127Z" fill="#2F5066" fill-opacity="1.000000" fill-rule="nonzero"/>
		<path id="Vector" d="M93.96 19.92L118.26 19.92C119.01 19.92 119.36 18.99 118.8 18.49L112.49 12.93C112.12 12.61 112.12 12.03 112.49 11.71L118.8 6.15C119.36 5.65 119.01 4.72 118.26 4.72L93.96 4.72L93.96 19.92Z" fill="#FDB659" fill-opacity="1.000000" fill-rule="nonzero"/>
		<path id="Vector" d="M95.89 27.04L69.57 41.33C67.22 42.61 66.57 44.85 65.75 47.74L60.52 66.26L67.43 68.63L73.35 61L78.33 45.94L91.58 37.89C95.28 35.64 97.04 31.21 95.89 27.04Z" fill="#83D9FF" fill-opacity="1.000000" fill-rule="nonzero"/>
		<path id="Vector" d="M95.89 27.04L92.85 28.69C92.34 31.3 90.76 33.66 88.37 35.11L76.3 42.45C75.54 42.91 74.97 43.63 74.69 44.47L72.97 49.68C71.18 55.1 67.11 59.46 61.83 61.63L60.52 66.26L73.35 61L78.33 45.94L91.58 37.89C95.28 35.64 97.04 31.21 95.89 27.04Z" fill="#5FC9ED" fill-opacity="1.000000" fill-rule="nonzero"/>
		<path id="Vector" d="M73.35 61L80.93 69.96C82.19 71.62 83.28 72.79 83.05 74.62L81.28 88.95L76.65 88.95L75.44 76.63C75.37 75.89 74.9 75.24 74.21 74.94L60.52 66.26L73.35 61Z" fill="#38627C" fill-opacity="1.000000" fill-rule="nonzero"/>
		<path id="Vector" d="M60.52 66.26L59.78 79.84C59.73 80.97 59.89 81.73 59.45 82.57L50.72 100.94L55.63 100.94L68.75 83.5C69.52 82.61 69.61 81.39 69.87 80.28L73.35 61L60.52 66.26Z" fill="#4F7693" fill-opacity="1.000000" fill-rule="nonzero"/>
		<path id="Vector" d="M72.41 29.97L74.56 34.17C75.57 36.15 74.79 38.57 72.82 39.58L71.15 40.43C69.18 41.44 66.76 40.66 65.74 38.69L63.59 34.48C62.58 32.51 63.36 30.09 65.34 29.07L67 28.22C68.97 27.21 71.4 27.99 72.41 29.97Z" fill="#FECBAA" fill-opacity="1.000000" fill-rule="nonzero"/>
	</g>
</svg>
