<svg width="30.000000" height="30.000000" viewBox="0 0 30 30" fill="none" xmlns="http://www.w3.org/2000/svg" xmlns:xlink="http://www.w3.org/1999/xlink">
	<desc>
			Created with Pixso.
	</desc>
	<defs>
		<clipPath id="clip104_3728">
			<rect id="fi_5968958" rx="0.000000" width="29.000000" height="29.000000" transform="translate(0.500000 0.500000)" fill="white" fill-opacity="0"/>
		</clipPath>
	</defs>
	<rect id="fi_5968958" rx="0.000000" width="29.000000" height="29.000000" transform="translate(0.500000 0.500000)" fill="#FFFFFF" fill-opacity="0"/>
	<g clip-path="url(#clip104_3728)">
		<path id="Vector" d="M17.79 12.7L28.72 0L26.13 0L16.64 11.02L9.06 0L0.32 0L11.78 16.67L0.32 30L2.91 30L12.93 18.35L20.93 30L29.67 30L17.79 12.7L17.79 12.7ZM14.24 16.82L13.08 15.16L3.84 1.94L7.82 1.94L15.27 12.61L16.44 14.27L26.13 28.13L22.15 28.13L14.24 16.82L14.24 16.82Z" fill="#E82A73" fill-opacity="1.000000" fill-rule="nonzero"/>
	</g>
</svg>
