<svg width="84.000000" height="84.000000" viewBox="0 0 84 84" fill="none" xmlns="http://www.w3.org/2000/svg" xmlns:xlink="http://www.w3.org/1999/xlink">
	<desc>
			Created with Pixso.
	</desc>
	<defs>
		<clipPath id="clip102_1098">
			<rect id="fi_12129584" rx="0.000000" width="83.000000" height="83.000000" transform="translate(0.500000 0.500000)" fill="white" fill-opacity="0"/>
		</clipPath>
	</defs>
	<rect id="fi_12129584" rx="0.000000" width="83.000000" height="83.000000" transform="translate(0.500000 0.500000)" fill="#FFFFFF" fill-opacity="0"/>
	<g clip-path="url(#clip102_1098)">
		<path id="Vector" d="M66.93 55.12L62.99 55.12C61.96 55.11 60.97 54.69 60.24 53.95C59.51 53.21 59.1 52.22 59.1 51.18C59.1 50.15 59.51 49.15 60.24 48.41C60.97 47.68 61.96 47.26 62.99 47.24L74.81 47.24C75.15 47.24 75.49 47.1 75.73 46.86C75.98 46.61 76.12 46.28 76.12 45.93L76.12 40.68C76.12 40.33 75.98 40 75.73 39.75C75.49 39.51 75.15 39.37 74.81 39.37L62.99 39.37C61.44 39.37 59.9 39.67 58.47 40.26C57.03 40.86 55.73 41.73 54.63 42.82C53.53 43.92 52.66 45.22 52.07 46.66C51.47 48.09 51.17 49.63 51.17 51.18C51.17 52.73 51.47 54.27 52.07 55.71C52.66 57.14 53.53 58.44 54.63 59.54C55.73 60.64 57.03 61.51 58.47 62.1C59.9 62.69 61.44 63 62.99 62.99L66.93 62.99C67.97 63.01 68.96 63.43 69.69 64.16C70.42 64.9 70.82 65.9 70.82 66.93C70.82 67.97 70.42 68.96 69.69 69.7C68.96 70.44 67.97 70.86 66.93 70.87L55.12 70.87C54.77 70.87 54.44 71.01 54.19 71.26C53.95 71.5 53.81 71.83 53.81 72.18L53.81 77.43C53.81 77.78 53.95 78.11 54.19 78.36C54.44 78.61 54.77 78.74 55.12 78.75L66.93 78.75C68.48 78.75 70.02 78.44 71.46 77.85C72.89 77.26 74.19 76.39 75.29 75.29C76.39 74.19 77.26 72.89 77.86 71.46C78.45 70.02 78.76 68.48 78.76 66.93C78.76 65.38 78.45 63.84 77.86 62.41C77.26 60.97 76.39 59.67 75.29 58.57C74.19 57.48 72.89 56.61 71.46 56.01C70.02 55.42 68.48 55.12 66.93 55.12Z" fill="#FFFFFF" fill-opacity="1.000000" fill-rule="nonzero"/>
		<path id="Vector" d="M20.14 44.13L32.49 8.55C32.55 8.38 32.57 8.21 32.56 8.04C32.55 7.86 32.5 7.69 32.42 7.53C32.34 7.38 32.23 7.24 32.1 7.13C31.97 7.01 31.82 6.92 31.65 6.87L26.64 5.31C26.31 5.21 25.95 5.24 25.64 5.4C25.33 5.56 25.1 5.83 25 6.16L18.91 25.64L12.81 6.16C12.71 5.83 12.48 5.56 12.17 5.4C11.86 5.24 11.51 5.21 11.17 5.31L6.16 6.87C5.99 6.92 5.84 7.01 5.71 7.13C5.58 7.24 5.47 7.38 5.39 7.53C5.31 7.69 5.27 7.86 5.25 8.04C5.24 8.21 5.26 8.38 5.32 8.55L17.66 44.13C17.75 44.39 17.92 44.6 18.14 44.76C18.36 44.91 18.63 45 18.9 45C19.17 45 19.43 44.91 19.65 44.76C19.88 44.6 20.04 44.39 20.14 44.13Z" fill="#FFFFFF" fill-opacity="1.000000" fill-rule="nonzero"/>
		<path id="Vector" d="M51.84 34.12L46.95 34.12L49.83 22.62C49.87 22.43 49.88 22.23 49.83 22.03C49.79 21.84 49.71 21.66 49.58 21.5C49.46 21.34 49.31 21.22 49.13 21.13C48.95 21.04 48.75 21 48.56 20.99L38.71 20.99C38.44 21 38.17 21.08 37.94 21.25C37.72 21.41 37.55 21.64 37.46 21.9L30.9 41.59C30.84 41.78 30.82 41.99 30.86 42.2C30.89 42.4 30.97 42.59 31.09 42.76C31.21 42.93 31.37 43.07 31.55 43.16C31.74 43.26 31.94 43.31 32.15 43.31L40.44 43.31L37.41 61.47C37.37 61.78 37.44 62.09 37.6 62.35C37.76 62.62 38.02 62.81 38.31 62.91C38.6 63 38.92 62.99 39.21 62.88C39.5 62.76 39.73 62.55 39.88 62.27L53.01 36.02C53.1 35.82 53.15 35.6 53.14 35.38C53.13 35.15 53.06 34.94 52.95 34.75C52.83 34.56 52.67 34.4 52.47 34.29C52.28 34.18 52.06 34.12 51.84 34.12Z" fill="#E82A73" fill-opacity="1.000000" fill-rule="nonzero"/>
		<path id="Vector" d="M34.69 47.45L14.81 67.32C14.69 67.44 14.59 67.58 14.53 67.74C14.46 67.9 14.42 68.07 14.42 68.25C14.42 68.42 14.46 68.59 14.52 68.75C14.59 68.91 14.69 69.06 14.81 69.18C14.93 69.3 15.08 69.4 15.24 69.46C15.4 69.53 15.57 69.56 15.74 69.56C15.91 69.56 16.08 69.53 16.24 69.46C16.4 69.39 16.55 69.3 16.67 69.17L36.54 49.3C36.78 49.05 36.91 48.72 36.91 48.38C36.9 48.04 36.77 47.71 36.52 47.46C36.28 47.22 35.95 47.08 35.61 47.08C35.26 47.08 34.93 47.21 34.69 47.45Z" fill="#FFFFFF" fill-opacity="1.000000" fill-rule="nonzero"/>
		<path id="Vector" d="M53.81 31.49C53.98 31.49 54.15 31.46 54.31 31.39C54.47 31.33 54.61 31.23 54.73 31.11L69.17 16.67C69.41 16.42 69.54 16.09 69.54 15.75C69.53 15.41 69.4 15.08 69.15 14.83C68.91 14.59 68.58 14.45 68.24 14.45C67.89 14.45 67.56 14.58 67.32 14.82L52.88 29.25C52.7 29.44 52.58 29.67 52.53 29.92C52.48 30.18 52.51 30.44 52.61 30.68C52.7 30.92 52.87 31.12 53.08 31.27C53.3 31.41 53.55 31.49 53.81 31.49Z" fill="#FFFFFF" fill-opacity="1.000000" fill-rule="nonzero"/>
	</g>
</svg>
