<svg width="127.000000" height="127.000000" viewBox="0 0 127 127" fill="none" xmlns="http://www.w3.org/2000/svg" xmlns:xlink="http://www.w3.org/1999/xlink">
	<desc>
			Created with Pixso.
	</desc>
	<defs>
		<clipPath id="clip104_3854">
			<rect id="fi_3093773" rx="0.000000" width="126.000000" height="126.000000" transform="translate(0.500000 0.500000)" fill="white" fill-opacity="0"/>
		</clipPath>
	</defs>
	<rect id="fi_3093773" rx="0.000000" width="126.000000" height="126.000000" transform="translate(0.500000 0.500000)" fill="#FFFFFF" fill-opacity="0"/>
	<g clip-path="url(#clip104_3854)">
		<path id="Vector" d="M87 106.08L16.52 106.08C12.28 106.08 8.85 102.64 8.85 98.41L8.85 7.66C8.85 3.43 12.28 0 16.52 0L87 0C91.23 0 94.66 3.43 94.66 7.66L94.66 98.41C94.66 102.64 91.23 106.08 87 106.08Z" fill="#F7F6F7" fill-opacity="1.000000" fill-rule="nonzero"/>
		<path id="Vector" d="M87 0L79.33 0C83.56 0 87 3.43 87 7.66L87 98.41C87 102.64 83.56 106.08 79.33 106.08L87 106.08C91.23 106.08 94.66 102.64 94.66 98.41L94.66 7.66C94.66 3.43 91.23 0 87 0Z" fill="#EDEBED" fill-opacity="1.000000" fill-rule="nonzero"/>
		<path id="Vector" d="M93.52 127L7.66 127C3.43 127 0 123.56 0 119.33L0 53.66C0 49.42 3.43 45.99 7.66 45.99L45.06 45.99C48.11 45.99 50.76 48.07 51.5 51.02L52.82 56.29C53.56 59.25 56.21 61.32 59.26 61.32L93.52 61.32C97.75 61.32 101.19 64.76 101.19 68.99L101.19 119.33C101.19 123.56 97.75 127 93.52 127Z" fill="#FFE07D" fill-opacity="1.000000" fill-rule="nonzero"/>
		<path id="Vector" d="M93.52 61.32L85.85 61.32C90.09 61.32 93.52 64.76 93.52 68.99L93.52 119.33C93.52 123.56 90.09 127 85.85 127L93.52 127C97.75 127 101.19 123.56 101.19 119.33L101.19 68.99C101.19 64.76 97.75 61.32 93.52 61.32Z" fill="#FFD064" fill-opacity="1.000000" fill-rule="nonzero"/>
		<path id="Vector" d="M43.84 51.02L45.15 56.29C45.89 59.25 48.55 61.32 51.6 61.32L59.26 61.32C56.22 61.32 53.56 59.25 52.82 56.29L51.5 51.02C50.76 48.07 48.11 45.99 45.06 45.99L37.39 45.99C40.44 45.99 43.1 48.07 43.84 51.02Z" fill="#FFD064" fill-opacity="1.000000" fill-rule="nonzero"/>
		<path id="Vector" d="M77.9 13.41L22.39 13.41C21.33 13.41 20.48 12.55 20.48 11.49C20.48 10.44 21.33 9.58 22.39 9.58L77.9 9.58C78.96 9.58 79.81 10.44 79.81 11.49C79.81 12.55 78.96 13.41 77.9 13.41Z" fill="#A198A4" fill-opacity="1.000000" fill-rule="nonzero"/>
		<path id="Vector" d="M66.4 24.91L22.39 24.91C21.33 24.91 20.48 24.05 20.48 22.99C20.48 21.93 21.33 21.08 22.39 21.08L66.4 21.08C67.46 21.08 68.31 21.93 68.31 22.99C68.31 24.05 67.46 24.91 66.4 24.91Z" fill="#A198A4" fill-opacity="1.000000" fill-rule="nonzero"/>
		<path id="Vector" d="M62.56 36.41L22.39 36.41C21.33 36.41 20.48 35.55 20.48 34.49C20.48 33.43 21.33 32.58 22.39 32.58L62.56 32.58C63.62 32.58 64.48 33.43 64.48 34.49C64.48 35.55 63.62 36.41 62.56 36.41Z" fill="#A198A4" fill-opacity="1.000000" fill-rule="nonzero"/>
		<path id="Vector" d="M83.06 80.7L74.46 75.74L84.9 57.65L93.5 62.62L83.06 80.7Z" fill="#A198A4" fill-opacity="1.000000" fill-rule="nonzero"/>
		<path id="Vector" d="M59.76 111.12C63.88 113.5 69.15 112.09 71.53 107.97L86.79 81.55C87.79 79.8 87.19 77.57 85.45 76.56L76.85 71.6C75.1 70.59 72.87 71.19 71.86 72.93L56.61 99.35C54.23 103.47 55.64 108.74 59.76 111.12Z" fill="#655E68" fill-opacity="1.000000" fill-rule="nonzero"/>
		<path id="Vector" d="M85.45 76.56L76.84 71.6C75.1 70.59 72.87 71.19 71.86 72.93L71.77 73.09L77.78 76.56C79.53 77.57 80.13 79.8 79.12 81.55L63.86 107.97C62.98 109.49 61.71 110.65 60.24 111.38C64.28 113.39 69.24 111.93 71.53 107.97L86.78 81.55C87.79 79.8 87.19 77.57 85.45 76.56Z" fill="#544F57" fill-opacity="1.000000" fill-rule="nonzero"/>
		<path id="Vector" d="M79.26 67.41C81.84 69.48 84.73 71.17 87.86 72.39L93.5 62.62L84.9 57.65L79.26 67.41Z" fill="#8B808E" fill-opacity="1.000000" fill-rule="nonzero"/>
		<path id="Vector" d="M110.47 16.91C124.35 22.92 130.74 39.04 124.73 52.92C118.73 66.8 102.61 73.19 88.73 67.19C74.84 61.18 68.46 45.06 74.46 31.18C80.46 17.3 96.58 10.91 110.47 16.91Z" fill="#A4CCFF" fill-opacity="1.000000" fill-rule="evenodd"/>
		<path id="Vector" d="M99.61 14.71C98.31 14.71 97.03 14.81 95.78 14.98C109.07 16.85 119.33 28.3 119.33 42.09C119.33 55.89 109.07 67.34 95.78 69.21C97.03 69.38 98.31 69.48 99.61 69.48C114.71 69.48 127 57.19 127 42.09C127 27 114.71 14.71 99.61 14.71Z" fill="#8BB3EA" fill-opacity="1.000000" fill-rule="nonzero"/>
		<path id="Vector" d="M116.11 37.99C118.36 47.07 112.83 56.25 103.75 58.51C94.67 60.76 85.48 55.23 83.23 46.15C80.98 37.07 86.51 27.88 95.59 25.63C104.67 23.38 113.85 28.91 116.11 37.99Z" fill="#E6ECF8" fill-opacity="1.000000" fill-rule="evenodd"/>
		<path id="Vector" d="M99.61 25.16C98.29 25.16 97.01 25.32 95.78 25.61C103.27 27.35 108.88 34.08 108.88 42.09C108.88 50.11 103.27 56.84 95.78 58.58C97.01 58.87 98.29 59.02 99.61 59.02C108.95 59.02 116.54 51.43 116.54 42.09C116.54 32.76 108.95 25.16 99.61 25.16Z" fill="#D7E1F3" fill-opacity="1.000000" fill-rule="nonzero"/>
	</g>
</svg>
